<?xml version="1.0" encoding="utf-8"?><svg viewBox="0 0 502.66 502.66" xmlns="http://www.w3.org/2000/svg" xmlns:xlink="http://www.w3.org/1999/xlink"><style>:root>svg{display:none}:root>svg:target{display:block}</style><svg viewBox="0 0 18 20" id="copy" xmlns="http://www.w3.org/2000/svg"><path d="M4 4V1a1 1 0 011-1h12a1 1 0 011 1v14a1 1 0 01-1 1h-3v3c0 .552-.45 1-1.007 1H1.007A1 1 0 010 19L.003 5c0-.552.45-1 1.007-1H4zM2.003 6L2 18h10V6H2.003zM6 4h8v10h2V2H6v2z"/></svg><svg viewBox="0 0 502.664 502.664" id="icon" xmlns="http://www.w3.org/2000/svg"><path d="M153.821 358.226L0 274.337v-46.463l153.821-83.414v54.574L46.636 250.523l107.185 53.431v54.272zm26.273 29.358L282.103 115.08h32.227L212.084 387.584h-31.99zm168.749-29.358v-54.272l107.164-52.999-107.164-52.59v-53.927l153.821 83.522v46.183l-153.821 84.083z"/></svg><svg viewBox="0 0 20 18" id="menu1" xmlns="http://www.w3.org/2000/svg"><path d="M17.273 17.084a.92.92 0 01-.267.648.906.906 0 01-.642.268H3.636a.906.906 0 01-.642-.268.92.92 0 01-.267-.648V8.839H0l9.388-8.6a.905.905 0 011.224 0L20 8.839h-2.727v8.245zm-10-9.161v5.496h5.454V7.923H7.273zM9.09 9.755h1.818v1.832H9.091V9.755z"/></svg><svg viewBox="0 0 16 16" id="menu2" xmlns="http://www.w3.org/2000/svg"><path d="M0 8.889h7.111V0H0v8.889zM0 16h7.111v-5.333H0V16zm8.889 0H16V7.111H8.889V16zm0-16v5.333H16V0H8.889z"/></svg><svg viewBox="0 0 20 20" id="menu3" xmlns="http://www.w3.org/2000/svg"><path d="M10 20C4.477 20 0 15.523 0 10S4.477 0 10 0s10 4.477 10 10-4.477 10-10 10zm-1-7v2h2v-2H9zm2-1.645A3.502 3.502 0 0010 4.5a3.501 3.501 0 00-3.433 2.813l1.962.393A1.5 1.5 0 1110 9.5a1 1 0 00-1 1V12h2v-.645z"/></svg><svg viewBox="0 0 18 20" id="menu4" xmlns="http://www.w3.org/2000/svg"><path d="M17 20H1a1 1 0 01-1-1V6h18v13a1 1 0 01-1 1zm1-16H0V1a1 1 0 011-1h16a1 1 0 011 1v3zM4 9v4h4V9H4zm0 6v2h10v-2H4zm6-5v2h4v-2h-4z"/></svg><svg viewBox="0 0 24 24" id="telegram" xmlns="http://www.w3.org/2000/svg"><path d="M12 22C6.477 22 2 17.523 2 12S6.477 2 12 2s10 4.477 10 10-4.477 10-10 10zm-3.11-8.83l.013-.007.87 2.87c.112.311.266.367.453.341.188-.025.287-.126.41-.244l1.188-1.148 2.55 1.888c.466.257.801.124.917-.432l1.657-7.822c.183-.728-.137-1.02-.702-.788l-9.733 3.76c-.664.266-.66.638-.12.803l2.497.78v-.001z"/></svg><svg viewBox="0 0 34 34" id="telegram_footer" xmlns="http://www.w3.org/2000/svg"><path d="M20 36.666c-9.205 0-16.666-7.461-16.666-16.666S10.795 3.333 20 3.333 36.667 10.795 36.667 20c0 9.205-7.462 16.666-16.667 16.666zM14.817 21.95l.021-.012 1.45 4.783c.187.519.444.612.756.569.313-.042.478-.21.683-.407l1.98-1.913 4.25 3.146c.776.429 1.335.207 1.528-.72l2.762-13.036c.305-1.214-.229-1.7-1.17-1.314l-16.222 6.267c-1.107.443-1.1 1.063-.2 1.338l4.162 1.3v-.001z"/></svg><svg viewBox="0 0 24 24" id="whatsapp" xmlns="http://www.w3.org/2000/svg"><path d="M.004 20l1.352-4.968A9.954 9.954 0 010 10C0 4.477 4.477 0 10 0s10 4.477 10 10-4.477 10-10 10a9.953 9.953 0 01-5.03-1.355L.004 20zM6.391 5.308a.961.961 0 00-.371.1 1.293 1.293 0 00-.294.228c-.12.113-.188.211-.261.306A2.729 2.729 0 004.9 7.62c.002.49.13.967.33 1.413.409.902 1.082 1.857 1.971 2.742.214.213.423.427.648.626a9.448 9.448 0 003.84 2.046l.569.087c.185.01.37-.004.556-.013a1.99 1.99 0 00.833-.231 4.83 4.83 0 00.383-.22s.043-.028.125-.09c.135-.1.218-.171.33-.288.083-.086.155-.187.21-.302.078-.163.156-.474.188-.733.024-.198.017-.306.014-.373-.004-.107-.093-.218-.19-.265l-.582-.261s-.87-.379-1.401-.621a.498.498 0 00-.177-.041.482.482 0 00-.378.127v-.002c-.005 0-.072.057-.795.933a.35.35 0 01-.368.13 1.418 1.418 0 01-.191-.066c-.124-.052-.167-.072-.252-.109l-.005-.002a6.012 6.012 0 01-1.57-1c-.126-.11-.243-.23-.363-.346a6.297 6.297 0 01-1.02-1.268l-.059-.095a.923.923 0 01-.102-.205c-.038-.147.061-.265.061-.265s.243-.266.356-.41c.094-.12.182-.244.263-.373.118-.19.155-.385.093-.536-.28-.684-.57-1.365-.868-2.041-.059-.134-.234-.23-.393-.249a4.439 4.439 0 00-.162-.016 3.385 3.385 0 00-.403.004v.001z"/></svg><svg viewBox="0 0 40 40" id="whatsapp_footer" xmlns="http://www.w3.org/2000/svg"><path d="M3.34 36.666l2.254-8.28A16.59 16.59 0 013.334 20c0-9.205 7.461-16.667 16.666-16.667S36.667 10.795 36.667 20c0 9.205-7.462 16.666-16.667 16.666a16.59 16.59 0 01-8.383-2.258L3.34 36.666zM13.985 12.18a1.6 1.6 0 00-.618.166c-.18.103-.346.23-.49.38-.2.189-.314.352-.435.51a4.548 4.548 0 00-.942 2.797c.004.817.217 1.612.55 2.355.682 1.503 1.803 3.095 3.285 4.57.357.355.705.712 1.08 1.043a15.746 15.746 0 006.4 3.41l.948.145c.309.017.617-.006.927-.021.486-.025.96-.157 1.388-.385.277-.147.407-.22.639-.367 0 0 .072-.047.208-.15.225-.167.363-.285.55-.48.138-.143.258-.312.35-.503.13-.272.26-.79.314-1.222.04-.33.028-.51.023-.622-.007-.178-.155-.363-.317-.441l-.97-.435s-1.45-.632-2.335-1.035a.83.83 0 00-.295-.069.804.804 0 00-.63.212v-.003c-.008 0-.12.095-1.325 1.555a.583.583 0 01-.613.216 2.358 2.358 0 01-.319-.11c-.206-.086-.278-.12-.42-.181l-.008-.004a10.016 10.016 0 01-2.616-1.666c-.21-.184-.405-.384-.605-.577a10.494 10.494 0 01-1.7-2.113l-.099-.159a1.54 1.54 0 01-.17-.341c-.063-.245.102-.442.102-.442s.405-.443.593-.683c.157-.2.303-.407.439-.622.196-.317.258-.642.155-.893a139.35 139.35 0 00-1.447-3.402c-.099-.223-.39-.383-.655-.415-.09-.01-.18-.02-.27-.027a5.638 5.638 0 00-.672.007v.002z"/></svg></svg>